<?xml version="1.0" encoding="UTF-8"?>
<svg width="192" height="192" viewBox="0 0 24 24" fill="none" xmlns="http://www.w3.org/2000/svg">
  <!-- Brain Icon -->
  <rect width="24" height="24" rx="6" fill="#2563eb"/>
  <g transform="translate(4,4)">
    <!-- Simplified brain shape -->
    <path d="M8 2C9.5 2 11 2.5 12 4C13 2.5 14.5 2 16 2C17.5 2 19 3.5 19 5C19 6 18.5 7 18 7.5C18.5 8 19 9 19 10C19 11.5 17.5 13 16 13H8C6.5 13 5 11.5 5 10C5 9 5.5 8 6 7.5C5.5 7 5 6 5 5C5 3.5 6.5 2 8 2Z" fill="white" transform="scale(0.75) translate(2,1)"/>
    <!-- Neural connections -->
    <circle cx="6" cy="6" r="0.8" fill="white" opacity="0.8"/>
    <circle cx="10" cy="6" r="0.8" fill="white" opacity="0.8"/>
    <circle cx="8" cy="9" r="0.8" fill="white" opacity="0.8"/>
    <line x1="6" y1="6" x2="8" y2="9" stroke="white" stroke-width="0.5" opacity="0.6"/>
    <line x1="10" y1="6" x2="8" y2="9" stroke="white" stroke-width="0.5" opacity="0.6"/>
  </g>
</svg>